{"asset":{"version":"2.0","generator":"Blockbench 4.12.6 glTF exporter"},"scenes":[{"nodes":[6],"name":"blockbench_export"}],"scene":0,"nodes":[{"translation":[0.25,0,0],"name":"cube","mesh":0},{"translation":[0,0,-0.0625],"name":"cube","mesh":1},{"name":"cube","mesh":2},{"rotation":[0,0.3826834323650898,0,0.9238795325112867],"translation":[-0.03125,0.006249999999999978,-0.03125],"name":"cube","mesh":3},{"translation":[0,0.3125,0],"name":"Flower","children":[2,3]},{"name":"BlueFlower","children":[0,1,4]},{"children":[5]}],"bufferViews":[{"buffer":0,"byteOffset":0,"byteLength":96,"target":34962,"byteStride":12},{"buffer":0,"byteOffset":96,"byteLength":96,"target":34962,"byteStride":12},{"buffer":0,"byteOffset":192,"byteLength":64,"target":34962,"byteStride":8},{"buffer":0,"byteOffset":256,"byteLength":24,"target":34963},{"buffer":0,"byteOffset":280,"byteLength":96,"target":34962,"byteStride":12},{"buffer":0,"byteOffset":376,"byteLength":96,"target":34962,"byteStride":12},{"buffer":0,"byteOffset":472,"byteLength":64,"target":34962,"byteStride":8},{"buffer":0,"byteOffset":536,"byteLength":24,"target":34963},{"buffer":0,"byteOffset":560,"byteLength":288,"target":34962,"byteStride":12},{"buffer":0,"byteOffset":848,"byteLength":288,"target":34962,"byteStride":12},{"buffer":0,"byteOffset":1136,"byteLength":192,"target":34962,"byteStride":8},{"buffer":0,"byteOffset":1328,"byteLength":72,"target":34963},{"buffer":0,"byteOffset":1400,"byteLength":288,"target":34962,"byteStride":12},{"buffer":0,"byteOffset":1688,"byteLength":288,"target":34962,"byteStride":12},{"buffer":0,"byteOffset":1976,"byteLength":192,"target":34962,"byteStride":8},{"buffer":0,"byteOffset":2168,"byteLength":72,"target":34963}],"buffers":[{"byteLength":2240,"uri":"data:application/octet-stream;base64,"}],"accessors":[{"bufferView":0,"componentType":5126,"count":8,"max":[-0.25,0.3125,0.0625],"min":[-0.25,0,-0.0625],"type":"VEC3"},{"bufferView":1,"componentType":5126,"count":8,"max":[1,0,0],"min":[-1,0,0],"type":"VEC3"},{"bufferView":2,"componentType":5126,"count":8,"max":[0.3125,0.6875],"min":[0,0.375],"type":"VEC2"},{"bufferView":3,"componentType":5123,"count":12,"max":[7],"min":[0],"type":"SCALAR"},{"bufferView":4,"componentType":5126,"count":8,"max":[0.125,0.3125,0.0625],"min":[-0.0625,0,0.0625],"type":"VEC3"},{"bufferView":5,"componentType":5126,"count":8,"max":[0,0,1],"min":[0,0,-1],"type":"VEC3"},{"bufferView":6,"componentType":5126,"count":8,"max":[0.4375,0.3125],"min":[0,0],"type":"VEC2"},{"bufferView":7,"componentType":5123,"count":12,"max":[7],"min":[0],"type":"SCALAR"},{"bufferView":8,"componentType":5126,"count":24,"max":[0.0625,0.0000625000029685907,0.0625],"min":[-0.125,0,-0.125],"type":"VEC3"},{"bufferView":9,"componentType":5126,"count":24,"max":[1,1,1],"min":[-1,-1,-1],"type":"VEC3"},{"bufferView":10,"componentType":5126,"count":24,"max":[0.8125,0.5625],"min":[0.375,0],"type":"VEC2"},{"bufferView":11,"componentType":5123,"count":36,"max":[23],"min":[0],"type":"SCALAR"},{"bufferView":12,"componentType":5126,"count":24,"max":[0.09375,0.0000625000029685907,0.09375],"min":[-0.09375,0,-0.09375],"type":"VEC3"},{"bufferView":13,"componentType":5126,"count":24,"max":[1,1,1],"min":[-1,-1,-1],"type":"VEC3"},{"bufferView":14,"componentType":5126,"count":24,"max":[0.8125,0.8125],"min":[0.375,0.25],"type":"VEC2"},{"bufferView":15,"componentType":5123,"count":36,"max":[23],"min":[0],"type":"SCALAR"}],"materials":[{"pbrMetallicRoughness":{"metallicFactor":0,"roughnessFactor":1,"baseColorTexture":{"index":0}},"alphaMode":"MASK","alphaCutoff":0.05}],"textures":[{"sampler":0,"source":0,"name":"BlueFlower"}],"samplers":[{"magFilter":9728,"minFilter":9728,"wrapS":33071,"wrapT":33071}],"images":[{"mimeType":"image/png","uri":"data:image/png;base64,"}],"meshes":[{"primitives":[{"mode":4,"attributes":{"POSITION":0,"NORMAL":1,"TEXCOORD_0":2},"indices":3,"material":0}]},{"primitives":[{"mode":4,"attributes":{"POSITION":4,"NORMAL":5,"TEXCOORD_0":6},"indices":7,"material":0}]},{"primitives":[{"mode":4,"attributes":{"POSITION":8,"NORMAL":9,"TEXCOORD_0":10},"indices":11,"material":0}]},{"primitives":[{"mode":4,"attributes":{"POSITION":12,"NORMAL":13,"TEXCOORD_0":14},"indices":15,"material":0}]}]}