{"asset":{"version":"2.0","generator":"Blockbench 4.12.6 glTF exporter"},"scenes":[{"nodes":[12],"name":"blockbench_export"}],"scene":0,"nodes":[{"translation":[-0.96875,0.1875,0],"name":"cube_outline","mesh":0},{"translation":[0.96875,0.1875,0],"name":"cube_outline","mesh":1},{"translation":[0.34375,0,0],"name":"cube_outline","mesh":2},{"translation":[-0.28125,0,0],"name":"cube_outline","mesh":3},{"translation":[0.28125,0,0],"name":"cube_outline","mesh":4},{"name":"PlasticFencingOutline","children":[0,1,2,3,4]},{"translation":[0.28125,0,0],"name":"cube","mesh":5},{"translation":[-0.28125,0,0],"name":"cube","mesh":6},{"translation":[0.34375,0,0],"name":"cube","mesh":7},{"translation":[0.96875,0.1875,0],"name":"cube","mesh":8},{"translation":[-0.96875,0.1875,0],"name":"cube","mesh":9},{"name":"PlasticFencing","children":[5,6,7,8,9,10]},{"children":[11]}],"bufferViews":[{"buffer":0,"byteOffset":0,"byteLength":240,"target":34962,"byteStride":12},{"buffer":0,"byteOffset":240,"byteLength":240,"target":34962,"byteStride":12},{"buffer":0,"byteOffset":480,"byteLength":160,"target":34962,"byteStride":8},{"buffer":0,"byteOffset":640,"byteLength":60,"target":34963},{"buffer":0,"byteOffset":700,"byteLength":240,"target":34962,"byteStride":12},{"buffer":0,"byteOffset":940,"byteLength":240,"target":34962,"byteStride":12},{"buffer":0,"byteOffset":1180,"byteLength":160,"target":34962,"byteStride":8},{"buffer":0,"byteOffset":1340,"byteLength":60,"target":34963},{"buffer":0,"byteOffset":1400,"byteLength":240,"target":34962,"byteStride":12},{"buffer":0,"byteOffset":1640,"byteLength":240,"target":34962,"byteStride":12},{"buffer":0,"byteOffset":1880,"byteLength":160,"target":34962,"byteStride":8},{"buffer":0,"byteOffset":2040,"byteLength":60,"target":34963},{"buffer":0,"byteOffset":2100,"byteLength":1008,"target":34962,"byteStride":12},{"buffer":0,"byteOffset":3108,"byteLength":1008,"target":34962,"byteStride":12},{"buffer":0,"byteOffset":4116,"byteLength":672,"target":34962,"byteStride":8},{"buffer":0,"byteOffset":4788,"byteLength":240,"target":34963},{"buffer":0,"byteOffset":5028,"byteLength":240,"target":34962,"byteStride":12},{"buffer":0,"byteOffset":5268,"byteLength":240,"target":34962,"byteStride":12},{"buffer":0,"byteOffset":5508,"byteLength":160,"target":34962,"byteStride":8},{"buffer":0,"byteOffset":5668,"byteLength":60,"target":34963},{"buffer":0,"byteOffset":5728,"byteLength":240,"target":34962,"byteStride":12},{"buffer":0,"byteOffset":5968,"byteLength":240,"target":34962,"byteStride":12},{"buffer":0,"byteOffset":6208,"byteLength":160,"target":34962,"byteStride":8},{"buffer":0,"byteOffset":6368,"byteLength":60,"target":34963},{"buffer":0,"byteOffset":6428,"byteLength":1008,"target":34962,"byteStride":12},{"buffer":0,"byteOffset":7436,"byteLength":1008,"target":34962,"byteStride":12},{"buffer":0,"byteOffset":8444,"byteLength":672,"target":34962,"byteStride":8},{"buffer":0,"byteOffset":9116,"byteLength":240,"target":34963},{"buffer":0,"byteOffset":9356,"byteLength":240,"target":34962,"byteStride":12},{"buffer":0,"byteOffset":9596,"byteLength":240,"target":34962,"byteStride":12},{"buffer":0,"byteOffset":9836,"byteLength":160,"target":34962,"byteStride":8},{"buffer":0,"byteOffset":9996,"byteLength":60,"target":34963},{"buffer":0,"byteOffset":10056,"byteLength":240,"target":34962,"byteStride":12},{"buffer":0,"byteOffset":10296,"byteLength":240,"target":34962,"byteStride":12},{"buffer":0,"byteOffset":10536,"byteLength":160,"target":34962,"byteStride":8},{"buffer":0,"byteOffset":10696,"byteLength":60,"target":34963},{"buffer":0,"byteOffset":10756,"byteLength":240,"target":34962,"byteStride":12},{"buffer":0,"byteOffset":10996,"byteLength":240,"target":34962,"byteStride":12},{"buffer":0,"byteOffset":11236,"byteLength":160,"target":34962,"byteStride":8},{"buffer":0,"byteOffset":11396,"byteLength":60,"target":34963}],"buffers":[{"byteLength":11456,"uri":"data:application/octet-stream;base64,"}],"accessors":[{"bufferView":0,"componentType":5126,"count":20,"max":[0.8374999761581421,0,0.4000000059604645],"min":[0.4749999940395355,-0.012500000186264515,-0.4000000059604645],"type":"VEC3"},{"bufferView":1,"componentType":5126,"count":20,"max":[1,1,1],"min":[-1,0,-1],"type":"VEC3"},{"bufferView":2,"componentType":5126,"count":20,"max":[0.3125,0.828125],"min":[0,0],"type":"VEC2"},{"bufferView":3,"componentType":5123,"count":30,"max":[19],"min":[0],"type":"SCALAR"},{"bufferView":4,"componentType":5126,"count":20,"max":[-0.4749999940395355,0,0.4000000059604645],"min":[-0.8374999761581421,-0.012500000186264515,-0.4000000059604645],"type":"VEC3"},{"bufferView":5,"componentType":5126,"count":20,"max":[1,1,1],"min":[-1,0,-1],"type":"VEC3"},{"bufferView":6,"componentType":5126,"count":20,"max":[0.203125,0.828125],"min":[0,0],"type":"VEC2"},{"bufferView":7,"componentType":5123,"count":30,"max":[19],"min":[0],"type":"SCALAR"},{"bufferView":8,"componentType":5126,"count":20,"max":[-0.16249999403953552,0.20000000298023224,0.4000000059604645],"min":[-0.5249999761581421,-0.012500000186264515,-0.4000000059604645],"type":"VEC3"},{"bufferView":9,"componentType":5126,"count":20,"max":[1,1,1],"min":[-1,0,-1],"type":"VEC3"},{"bufferView":10,"componentType":5126,"count":20,"max":[0.84375,0.828125],"min":[0,0.28125],"type":"VEC2"},{"bufferView":11,"componentType":5123,"count":30,"max":[19],"min":[0],"type":"SCALAR"},{"bufferView":12,"componentType":5126,"count":84,"max":[1.087499976158142,1.2062499523162842,0.4000000059604645],"min":[-0.5249999761581421,-0.012500000186264515,-0.4000000059604645],"type":"VEC3"},{"bufferView":13,"componentType":5126,"count":84,"max":[1,1,1],"min":[-1,-1,-1],"type":"VEC3"},{"bufferView":14,"componentType":5126,"count":84,"max":[0.9375,0.7240124940872192],"min":[0,0],"type":"VEC2"},{"bufferView":15,"componentType":5123,"count":120,"max":[83],"min":[0],"type":"SCALAR"},{"bufferView":16,"componentType":5126,"count":20,"max":[0.5249999761581421,0.20000000298023224,0.4000000059604645],"min":[0.16249999403953552,-0.012500000186264515,-0.4000000059604645],"type":"VEC3"},{"bufferView":17,"componentType":5126,"count":20,"max":[1,1,1],"min":[-1,0,-1],"type":"VEC3"},{"bufferView":18,"componentType":5126,"count":20,"max":[0.796875,0.75],"min":[0,0.328125],"type":"VEC2"},{"bufferView":19,"componentType":5123,"count":30,"max":[19],"min":[0],"type":"SCALAR"},{"bufferView":20,"componentType":5126,"count":20,"max":[0.5,0.1875,0.375],"min":[0.1875,0,-0.375],"type":"VEC3"},{"bufferView":21,"componentType":5126,"count":20,"max":[1,0,1],"min":[-1,-1,-1],"type":"VEC3"},{"bufferView":22,"componentType":5126,"count":20,"max":[0.796875,0.765625],"min":[0.578125,0.1875],"type":"VEC2"},{"bufferView":23,"componentType":5123,"count":30,"max":[19],"min":[0],"type":"SCALAR"},{"bufferView":24,"componentType":5126,"count":84,"max":[1.0625,1.1875,0.375],"min":[-0.5,0,-0.375],"type":"VEC3"},{"bufferView":25,"componentType":5126,"count":84,"max":[1,1,1],"min":[-1,-1,-1],"type":"VEC3"},{"bufferView":26,"componentType":5126,"count":84,"max":[0.796875,0.734375],"min":[0,0],"type":"VEC2"},{"bufferView":27,"componentType":5123,"count":120,"max":[83],"min":[0],"type":"SCALAR"},{"bufferView":28,"componentType":5126,"count":20,"max":[-0.1875,0.1875,0.375],"min":[-0.5,0,-0.375],"type":"VEC3"},{"bufferView":29,"componentType":5126,"count":20,"max":[1,0,1],"min":[-1,-1,-1],"type":"VEC3"},{"bufferView":30,"componentType":5126,"count":20,"max":[0.75,0.734375],"min":[0.390625,0],"type":"VEC2"},{"bufferView":31,"componentType":5123,"count":30,"max":[19],"min":[0],"type":"SCALAR"},{"bufferView":32,"componentType":5126,"count":20,"max":[-0.5,0,0.375],"min":[-0.8125,0,-0.375],"type":"VEC3"},{"bufferView":33,"componentType":5126,"count":20,"max":[1,0,0],"min":[0,-1,0],"type":"VEC3"},{"bufferView":34,"componentType":5126,"count":20,"max":[0.375,0.734375],"min":[0,0],"type":"VEC2"},{"bufferView":35,"componentType":5123,"count":30,"max":[19],"min":[0],"type":"SCALAR"},{"bufferView":36,"componentType":5126,"count":20,"max":[0.8125,0,0.375],"min":[0.5,0,-0.375],"type":"VEC3"},{"bufferView":37,"componentType":5126,"count":20,"max":[1,0,0],"min":[0,-1,0],"type":"VEC3"},{"bufferView":38,"componentType":5126,"count":20,"max":[0.28125,0.734375],"min":[0,0],"type":"VEC2"},{"bufferView":39,"componentType":5123,"count":30,"max":[19],"min":[0],"type":"SCALAR"}],"materials":[{"pbrMetallicRoughness":{"metallicFactor":0,"roughnessFactor":1,"baseColorTexture":{"index":0}},"alphaMode":"MASK","alphaCutoff":0.05},{"pbrMetallicRoughness":{"metallicFactor":0,"roughnessFactor":1,"baseColorTexture":{"index":1}},"alphaMode":"MASK","alphaCutoff":0.05}],"textures":[{"sampler":0,"source":0,"name":"PlasticFencingOutlineWhite.png"},{"sampler":1,"source":1,"name":"PlasticFencingWhite.png"}],"samplers":[{"magFilter":9728,"minFilter":9728,"wrapS":33071,"wrapT":33071},{"magFilter":9728,"minFilter":9728,"wrapS":33071,"wrapT":33071}],"images":[{"mimeType":"image/png","uri":"data:image/png;base64,"},{"mimeType":"image/png","uri":"data:image/png;base64,"}],"meshes":[{"primitives":[{"mode":4,"attributes":{"POSITION":0,"NORMAL":1,"TEXCOORD_0":2},"indices":3,"material":0}]},{"primitives":[{"mode":4,"attributes":{"POSITION":4,"NORMAL":5,"TEXCOORD_0":6},"indices":7,"material":0}]},{"primitives":[{"mode":4,"attributes":{"POSITION":8,"NORMAL":9,"TEXCOORD_0":10},"indices":11,"material":0}]},{"primitives":[{"mode":4,"attributes":{"POSITION":12,"NORMAL":13,"TEXCOORD_0":14},"indices":15,"material":0}]},{"primitives":[{"mode":4,"attributes":{"POSITION":16,"NORMAL":17,"TEXCOORD_0":18},"indices":19,"material":0}]},{"primitives":[{"mode":4,"attributes":{"POSITION":20,"NORMAL":21,"TEXCOORD_0":22},"indices":23,"material":1}]},{"primitives":[{"mode":4,"attributes":{"POSITION":24,"NORMAL":25,"TEXCOORD_0":26},"indices":27,"material":1}]},{"primitives":[{"mode":4,"attributes":{"POSITION":28,"NORMAL":29,"TEXCOORD_0":30},"indices":31,"material":1}]},{"primitives":[{"mode":4,"attributes":{"POSITION":32,"NORMAL":33,"TEXCOORD_0":34},"indices":35,"material":1}]},{"primitives":[{"mode":4,"attributes":{"POSITION":36,"NORMAL":37,"TEXCOORD_0":38},"indices":39,"material":1}]}]}