{"asset":{"version":"2.0","generator":"Blockbench 4.12.6 glTF exporter"},"scenes":[{"nodes":[6],"name":"blockbench_export"}],"scene":0,"nodes":[{"translation":[0.0625,0.3125,0],"name":"cube","mesh":0},{"translation":[0.0625,0.3125,0],"name":"cube_outline","mesh":1},{"name":"Flower","children":[0,1]},{"translation":[0.25,0,0],"name":"cube","mesh":2},{"translation":[0,0,-0.0625],"name":"cube","mesh":3},{"name":"PurpleFlower","children":[2,3,4]},{"children":[5]}],"bufferViews":[{"buffer":0,"byteOffset":0,"byteLength":288,"target":34962,"byteStride":12},{"buffer":0,"byteOffset":288,"byteLength":288,"target":34962,"byteStride":12},{"buffer":0,"byteOffset":576,"byteLength":192,"target":34962,"byteStride":8},{"buffer":0,"byteOffset":768,"byteLength":72,"target":34963},{"buffer":0,"byteOffset":840,"byteLength":288,"target":34962,"byteStride":12},{"buffer":0,"byteOffset":1128,"byteLength":288,"target":34962,"byteStride":12},{"buffer":0,"byteOffset":1416,"byteLength":192,"target":34962,"byteStride":8},{"buffer":0,"byteOffset":1608,"byteLength":72,"target":34963},{"buffer":0,"byteOffset":1680,"byteLength":96,"target":34962,"byteStride":12},{"buffer":0,"byteOffset":1776,"byteLength":96,"target":34962,"byteStride":12},{"buffer":0,"byteOffset":1872,"byteLength":64,"target":34962,"byteStride":8},{"buffer":0,"byteOffset":1936,"byteLength":24,"target":34963},{"buffer":0,"byteOffset":1960,"byteLength":96,"target":34962,"byteStride":12},{"buffer":0,"byteOffset":2056,"byteLength":96,"target":34962,"byteStride":12},{"buffer":0,"byteOffset":2152,"byteLength":64,"target":34962,"byteStride":8},{"buffer":0,"byteOffset":2216,"byteLength":24,"target":34963}],"buffers":[{"byteLength":2240,"uri":"data:application/octet-stream;base64,"}],"accessors":[{"bufferView":0,"componentType":5126,"count":24,"max":[0,0.1875,0.0625],"min":[-0.1875,0,-0.125],"type":"VEC3"},{"bufferView":1,"componentType":5126,"count":24,"max":[1,1,1],"min":[-1,-1,-1],"type":"VEC3"},{"bufferView":2,"componentType":5126,"count":24,"max":[0.4375,0.4375],"min":[0,0],"type":"VEC2"},{"bufferView":3,"componentType":5123,"count":36,"max":[23],"min":[0],"type":"SCALAR"},{"bufferView":4,"componentType":5126,"count":24,"max":[0.012500000186264515,0.19374999403953552,0.07500000298023224],"min":[-0.20000000298023224,-0.0062500000931322575,-0.13750000298023224],"type":"VEC3"},{"bufferView":5,"componentType":5126,"count":24,"max":[1,1,1],"min":[-1,-1,-1],"type":"VEC3"},{"bufferView":6,"componentType":5126,"count":24,"max":[0.59375,0.3125],"min":[0.46875,0.1875],"type":"VEC2"},{"bufferView":7,"componentType":5123,"count":36,"max":[23],"min":[0],"type":"SCALAR"},{"bufferView":8,"componentType":5126,"count":8,"max":[-0.25,0.3125,0.0625],"min":[-0.25,0,-0.0625],"type":"VEC3"},{"bufferView":9,"componentType":5126,"count":8,"max":[1,0,0],"min":[-1,0,0],"type":"VEC3"},{"bufferView":10,"componentType":5126,"count":8,"max":[0.25,0.15625],"min":[0.03125,0],"type":"VEC2"},{"bufferView":11,"componentType":5123,"count":12,"max":[7],"min":[0],"type":"SCALAR"},{"bufferView":12,"componentType":5126,"count":8,"max":[0.125,0.3125,0.0625],"min":[-0.0625,0,0.0625],"type":"VEC3"},{"bufferView":13,"componentType":5126,"count":8,"max":[0,0,1],"min":[0,0,-1],"type":"VEC3"},{"bufferView":14,"componentType":5126,"count":8,"max":[0.5625,0.5],"min":[0.15625,0],"type":"VEC2"},{"bufferView":15,"componentType":5123,"count":12,"max":[7],"min":[0],"type":"SCALAR"}],"materials":[{"pbrMetallicRoughness":{"metallicFactor":0,"roughnessFactor":1,"baseColorTexture":{"index":0}},"alphaMode":"MASK","alphaCutoff":0.05}],"textures":[{"sampler":0,"source":0,"name":"PurpleFlower.png"}],"samplers":[{"magFilter":9728,"minFilter":9728,"wrapS":33071,"wrapT":33071}],"images":[{"mimeType":"image/png","uri":"data:image/png;base64,"}],"meshes":[{"primitives":[{"mode":4,"attributes":{"POSITION":0,"NORMAL":1,"TEXCOORD_0":2},"indices":3,"material":0}]},{"primitives":[{"mode":4,"attributes":{"POSITION":4,"NORMAL":5,"TEXCOORD_0":6},"indices":7,"material":0}]},{"primitives":[{"mode":4,"attributes":{"POSITION":8,"NORMAL":9,"TEXCOORD_0":10},"indices":11,"material":0}]},{"primitives":[{"mode":4,"attributes":{"POSITION":12,"NORMAL":13,"TEXCOORD_0":14},"indices":15,"material":0}]}]}