{"asset":{"version":"2.0","generator":"Blockbench 4.12.6 glTF exporter"},"scenes":[{"nodes":[10],"name":"blockbench_export"}],"scene":0,"nodes":[{"rotation":[0,0,-0.3826834323650898,0.9238795325112867],"translation":[0,0.328125,-0.015625],"name":"cube_outline","mesh":0},{"translation":[0.125,0.015625,0],"name":"cube_outline","mesh":1},{"translation":[0.125,0.203125,0],"name":"cube_outline","mesh":2},{"translation":[0,0.453125,0],"name":"cube_outline","mesh":3},{"translation":[-0.125,-0.015625,0],"name":"Outline","children":[0,1,2,3]},{"name":"cube","mesh":4},{"translation":[0,0.1875,0],"name":"cube","mesh":5},{"rotation":[0,0,-0.3826834323650898,0.9238795325112867],"translation":[-0.125,0.3125,-0.015625],"name":"cube","mesh":6},{"translation":[-0.125,0.4375,0],"name":"cube","mesh":7},{"translation":[0.125,0.015625,0],"name":"Brush","children":[4,5,6,7,8]},{"children":[9]}],"bufferViews":[{"buffer":0,"byteOffset":0,"byteLength":192,"target":34962,"byteStride":12},{"buffer":0,"byteOffset":192,"byteLength":192,"target":34962,"byteStride":12},{"buffer":0,"byteOffset":384,"byteLength":128,"target":34962,"byteStride":8},{"buffer":0,"byteOffset":512,"byteLength":48,"target":34963},{"buffer":0,"byteOffset":560,"byteLength":240,"target":34962,"byteStride":12},{"buffer":0,"byteOffset":800,"byteLength":240,"target":34962,"byteStride":12},{"buffer":0,"byteOffset":1040,"byteLength":160,"target":34962,"byteStride":8},{"buffer":0,"byteOffset":1200,"byteLength":60,"target":34963},{"buffer":0,"byteOffset":1260,"byteLength":192,"target":34962,"byteStride":12},{"buffer":0,"byteOffset":1452,"byteLength":192,"target":34962,"byteStride":12},{"buffer":0,"byteOffset":1644,"byteLength":128,"target":34962,"byteStride":8},{"buffer":0,"byteOffset":1772,"byteLength":48,"target":34963},{"buffer":0,"byteOffset":1820,"byteLength":240,"target":34962,"byteStride":12},{"buffer":0,"byteOffset":2060,"byteLength":240,"target":34962,"byteStride":12},{"buffer":0,"byteOffset":2300,"byteLength":160,"target":34962,"byteStride":8},{"buffer":0,"byteOffset":2460,"byteLength":60,"target":34963},{"buffer":0,"byteOffset":2520,"byteLength":240,"target":34962,"byteStride":12},{"buffer":0,"byteOffset":2760,"byteLength":240,"target":34962,"byteStride":12},{"buffer":0,"byteOffset":3000,"byteLength":160,"target":34962,"byteStride":8},{"buffer":0,"byteOffset":3160,"byteLength":60,"target":34963},{"buffer":0,"byteOffset":3220,"byteLength":192,"target":34962,"byteStride":12},{"buffer":0,"byteOffset":3412,"byteLength":192,"target":34962,"byteStride":12},{"buffer":0,"byteOffset":3604,"byteLength":128,"target":34962,"byteStride":8},{"buffer":0,"byteOffset":3732,"byteLength":48,"target":34963},{"buffer":0,"byteOffset":3780,"byteLength":192,"target":34962,"byteStride":12},{"buffer":0,"byteOffset":3972,"byteLength":192,"target":34962,"byteStride":12},{"buffer":0,"byteOffset":4164,"byteLength":128,"target":34962,"byteStride":8},{"buffer":0,"byteOffset":4292,"byteLength":48,"target":34963},{"buffer":0,"byteOffset":4340,"byteLength":240,"target":34962,"byteStride":12},{"buffer":0,"byteOffset":4580,"byteLength":240,"target":34962,"byteStride":12},{"buffer":0,"byteOffset":4820,"byteLength":160,"target":34962,"byteStride":8},{"buffer":0,"byteOffset":4980,"byteLength":60,"target":34963}],"buffers":[{"byteLength":5040,"uri":"data:application/octet-stream;base64,"}],"accessors":[{"bufferView":0,"componentType":5126,"count":16,"max":[0.15156249701976776,0.15200312435626984,0.09624999761581421],"min":[-0.15156249701976776,-0.14218750596046448,-0.06499999761581421],"type":"VEC3"},{"bufferView":1,"componentType":5126,"count":16,"max":[1,0,1],"min":[0,-0.9999253153800964,-1],"type":"VEC3"},{"bufferView":2,"componentType":5126,"count":16,"max":[0.59375,0.34375],"min":[0,0],"type":"VEC2"},{"bufferView":3,"componentType":5123,"count":24,"max":[15],"min":[0],"type":"SCALAR"},{"bufferView":4,"componentType":5126,"count":20,"max":[0.08124999701976776,0.19687500596046448,0.08124999701976776],"min":[-0.33125001192092896,-0.015625,-0.08124999701976776],"type":"VEC3"},{"bufferView":5,"componentType":5126,"count":20,"max":[1,1,1],"min":[-1,0,-1],"type":"VEC3"},{"bufferView":6,"componentType":5126,"count":20,"max":[0.65625,0.6875],"min":[0,0],"type":"VEC2"},{"bufferView":7,"componentType":5123,"count":30,"max":[19],"min":[0],"type":"SCALAR"},{"bufferView":8,"componentType":5126,"count":16,"max":[0.08124999701976776,0.13437500596046448,0.08124999701976776],"min":[-0.33125001192092896,-0.00937500037252903,-0.08124999701976776],"type":"VEC3"},{"bufferView":9,"componentType":5126,"count":16,"max":[1,0,1],"min":[-1,0,-1],"type":"VEC3"},{"bufferView":10,"componentType":5126,"count":16,"max":[0.71875,0.65625],"min":[0.125,0.3125],"type":"VEC2"},{"bufferView":11,"componentType":5123,"count":24,"max":[15],"min":[0],"type":"SCALAR"},{"bufferView":12,"componentType":5126,"count":20,"max":[0.08124999701976776,0.390625,0.08124999701976776],"min":[-0.08124999701976776,-0.010937499813735485,-0.08124999701976776],"type":"VEC3"},{"bufferView":13,"componentType":5126,"count":20,"max":[1,0,1],"min":[-1,-1,-1],"type":"VEC3"},{"bufferView":14,"componentType":5126,"count":20,"max":[0.59375,0.59375],"min":[0,0.375],"type":"VEC2"},{"bufferView":15,"componentType":5123,"count":30,"max":[19],"min":[0],"type":"SCALAR"},{"bufferView":16,"componentType":5126,"count":20,"max":[0.0625,0.1875,0.0625],"min":[-0.3125,0,-0.0625],"type":"VEC3"},{"bufferView":17,"componentType":5126,"count":20,"max":[1,0,1],"min":[-1,-1,-1],"type":"VEC3"},{"bufferView":18,"componentType":5126,"count":20,"max":[0.53125,0.53125],"min":[0,0],"type":"VEC2"},{"bufferView":19,"componentType":5123,"count":30,"max":[19],"min":[0],"type":"SCALAR"},{"bufferView":20,"componentType":5126,"count":16,"max":[0.0625,0.125,0.0625],"min":[-0.3125,0,-0.0625],"type":"VEC3"},{"bufferView":21,"componentType":5126,"count":16,"max":[1,0,1],"min":[-1,0,-1],"type":"VEC3"},{"bufferView":22,"componentType":5126,"count":16,"max":[0.5625,0.625],"min":[0,0.3125],"type":"VEC2"},{"bufferView":23,"componentType":5123,"count":24,"max":[15],"min":[0],"type":"SCALAR"},{"bufferView":24,"componentType":5126,"count":16,"max":[0.1328125,0.1328125,0.07750000059604645],"min":[-0.1328125,-0.1328125,-0.04625000059604645],"type":"VEC3"},{"bufferView":25,"componentType":5126,"count":16,"max":[0,1,1],"min":[-1,0,-1],"type":"VEC3"},{"bufferView":26,"componentType":5126,"count":16,"max":[0.5625,0.5625],"min":[0,0],"type":"VEC2"},{"bufferView":27,"componentType":5123,"count":24,"max":[15],"min":[0],"type":"SCALAR"},{"bufferView":28,"componentType":5126,"count":20,"max":[0.0625,0.375,0.0625],"min":[-0.0625,0,-0.0625],"type":"VEC3"},{"bufferView":29,"componentType":5126,"count":20,"max":[1,1,1],"min":[-1,0,-1],"type":"VEC3"},{"bufferView":30,"componentType":5126,"count":20,"max":[0.625,0.59375],"min":[0.21875,0.09375],"type":"VEC2"},{"bufferView":31,"componentType":5123,"count":30,"max":[19],"min":[0],"type":"SCALAR"}],"materials":[{"pbrMetallicRoughness":{"metallicFactor":0,"roughnessFactor":1,"baseColorTexture":{"index":0}},"alphaMode":"MASK","alphaCutoff":0.05},{"pbrMetallicRoughness":{"metallicFactor":0,"roughnessFactor":1,"baseColorTexture":{"index":1}},"alphaMode":"MASK","alphaCutoff":0.05}],"textures":[{"sampler":0,"source":0,"name":"Brush_Outline.png"},{"sampler":1,"source":1,"name":"Brush_Paint.png"}],"samplers":[{"magFilter":9728,"minFilter":9728,"wrapS":33071,"wrapT":33071},{"magFilter":9728,"minFilter":9728,"wrapS":33071,"wrapT":33071}],"images":[{"mimeType":"image/png","uri":"data:image/png;base64,"},{"mimeType":"image/png","uri":"data:image/png;base64,"}],"meshes":[{"primitives":[{"mode":4,"attributes":{"POSITION":0,"NORMAL":1,"TEXCOORD_0":2},"indices":3,"material":0}]},{"primitives":[{"mode":4,"attributes":{"POSITION":4,"NORMAL":5,"TEXCOORD_0":6},"indices":7,"material":0}]},{"primitives":[{"mode":4,"attributes":{"POSITION":8,"NORMAL":9,"TEXCOORD_0":10},"indices":11,"material":0}]},{"primitives":[{"mode":4,"attributes":{"POSITION":12,"NORMAL":13,"TEXCOORD_0":14},"indices":15,"material":0}]},{"primitives":[{"mode":4,"attributes":{"POSITION":16,"NORMAL":17,"TEXCOORD_0":18},"indices":19,"material":1}]},{"primitives":[{"mode":4,"attributes":{"POSITION":20,"NORMAL":21,"TEXCOORD_0":22},"indices":23,"material":1}]},{"primitives":[{"mode":4,"attributes":{"POSITION":24,"NORMAL":25,"TEXCOORD_0":26},"indices":27,"material":1}]},{"primitives":[{"mode":4,"attributes":{"POSITION":28,"NORMAL":29,"TEXCOORD_0":30},"indices":31,"material":1}]}]}